<?xml version="1.0" encoding="UTF-8"?><svg id="Layer_3" xmlns="http://www.w3.org/2000/svg" width="1080" height="1080" viewBox="0 0 1080 1080"><defs><style>.cls-1{fill:#fff;}.cls-2{fill:#5d8764;}</style></defs><rect class="cls-2" x="526.39" y="25.81" width="62.41" height="180.54" rx="31.2" ry="31.2"/><rect class="cls-2" x="526.39" y="839.2" width="62.41" height="180.54" rx="31.2" ry="31.2"/><rect class="cls-2" x="791.95" y="778.58" width="62.41" height="180.54" rx="31.2" ry="31.2" transform="translate(-373.27 836.54) rotate(-45)"/><rect class="cls-2" x="791.95" y="130.38" width="62.41" height="180.54" rx="31.2" ry="31.2" transform="translate(397.12 -517.43) rotate(45)"/><rect class="cls-2" x="240.82" y="75.32" width="62.41" height="180.54" rx="31.2" ry="31.2" transform="translate(-37.41 240.85) rotate(-45)"/><rect class="cls-2" x="253.64" y="778.58" width="62.41" height="180.54" rx="31.2" ry="31.2" transform="translate(697.8 53.07) rotate(45)"/><path class="cls-2" d="M902.35,503.69c-10.19-201.2-173.65-361.97-375.96-367.86v367.86h375.96Z"/><path class="cls-2" d="M526.39,543.56v367.86c202.31-5.89,365.78-166.66,375.96-367.86h-375.96Z"/><path class="cls-2" d="M483.01,623.99c-58.42,0-105.78-47.36-105.78-105.78s47.36-105.78,105.78-105.78c3.37,0,6.7.16,9.98.47V131.26c-201.03,14.53-359.61,182.22-359.61,386.95s158.58,372.42,359.61,386.95v-281.63c-3.29.31-6.62.47-9.98.47Z"/><circle class="cls-1" cx="423.18" cy="220.65" r="42.91"/><circle class="cls-1" cx="423.18" cy="815.43" r="42.91"/></svg>